<svg xmlns="http://www.w3.org/2000/svg" viewBox="0 0 24 24" aria-hidden="true">
  <path fill="#fff" d="M5 2h9.3L19 6.7V22H5V2Z"/>
  <path fill="#d9d9d9" d="M14.3 2v4.7H19L14.3 2Z"/>
  <path fill="#222" d="M13.2 12.1c-.5-.8-.9-1.8-1.1-2.8.4-1.8.1-2.8-.7-2.9-.6-.1-1 .4-1 1.2 0 .6.2 1.3.4 2-.3 1.2-.8 2.5-1.4 3.6-1.1.5-2.2 1.1-2.6 1.8-.2.4-.2.8.1 1.1.2.3.6.4 1 .3.8-.1 1.6-1.2 2.3-2.4 1-.4 2.1-.7 3.1-.9.8.9 1.6 1.4 2.3 1.3.6-.1.9-.5.8-1-.1-.9-1.3-1.2-3.2-1.3Zm-5.5 3.3c.2-.3.6-.6 1.1-.9-.5.7-.9 1-1.1.9Zm3.7-8c.1.2.1.6 0 1-.1-.4-.1-.8 0-1Zm-.7 5.4c.4-.8.7-1.6 1-2.4.2.7.5 1.3.8 1.8-.6.1-1.2.3-1.8.6Zm4.8.7c-.2.1-.7-.1-1.2-.5.7.1 1.1.2 1.2.5Z"/>
</svg>
